<?xml version="1.0" standalone="no"?>
<!DOCTYPE svg PUBLIC "-//W3C//DTD SVG 20010904//EN"
 "http://www.w3.org/TR/2001/REC-SVG-20010904/DTD/svg10.dtd">
<svg version="1.0" xmlns="http://www.w3.org/2000/svg"
 width="512.000000pt" height="512.000000pt" viewBox="0 0 512.000000 512.000000"
 preserveAspectRatio="xMidYMid meet">
<metadata>
Created by potrace 1.14, written by Peter Selinger 2001-2017
</metadata>
<g transform="translate(0.000000,512.000000) scale(0.100000,-0.100000)"
fill="#000000" stroke="none">
<path d="M1810 5085 c-308 -104 -581 -252 -829 -449 -80 -64 -315 -295 -367
-361 -21 -27 -41 -52 -44 -55 -18 -18 -98 -131 -152 -215 -195 -302 -340 -695
-383 -1041 -4 -27 -9 -60 -12 -74 -2 -14 -6 -119 -8 -235 -3 -206 1 -278 30
-480 41 -293 187 -672 367 -959 348 -552 916 -970 1538 -1131 119 -31 271 -58
397 -72 135 -15 515 -8 623 11 14 2 43 7 65 10 22 3 51 8 65 11 14 3 37 7 51
10 14 3 69 16 121 29 657 171 1216 589 1578 1181 139 228 270 555 270 676 0
51 -4 63 -31 94 -65 74 -148 71 -242 -9 -460 -390 -999 -549 -1598 -472 -265
35 -575 154 -816 316 -253 169 -436 363 -621 655 -63 101 -196 432 -217 540
-36 190 -46 278 -49 405 -6 324 46 585 174 873 68 150 157 294 271 437 54 68
101 136 104 152 20 91 -50 181 -145 186 -19 1 -82 -14 -140 -33z m-339 -551
c-124 -250 -204 -539 -227 -819 -13 -169 -4 -420 22 -555 2 -14 6 -36 9 -50
108 -577 422 -1079 897 -1432 78 -59 187 -129 261 -169 9 -5 25 -14 35 -19 9
-6 26 -14 37 -19 11 -5 55 -25 97 -45 167 -77 414 -148 608 -175 150 -20 177
-22 320 -22 190 0 266 7 420 37 41 8 86 16 100 19 123 23 345 102 494 175 44
22 81 38 83 37 5 -5 -97 -168 -155 -247 -104 -142 -257 -303 -387 -409 -38
-31 -76 -62 -83 -69 -32 -30 -221 -148 -324 -202 -102 -53 -266 -126 -307
-136 -9 -2 -61 -17 -116 -34 -111 -34 -322 -76 -430 -84 -75 -6 -351 -7 -400
-2 -16 2 -57 7 -90 10 -33 4 -67 8 -75 10 -8 1 -33 6 -55 10 -186 34 -424 112
-593 196 -241 118 -418 246 -617 445 -232 231 -374 443 -513 765 -42 97 -109
331 -127 440 -3 19 -7 46 -10 60 -32 167 -36 456 -9 655 26 195 106 476 183
637 22 48 41 90 41 92 0 24 206 346 257 401 10 11 34 40 54 65 55 68 191 202
282 278 107 89 344 248 354 238 2 -1 -15 -38 -36 -82z"/>
<path d="M4445 4905 c-5 -2 -22 -6 -36 -9 -71 -16 -108 -85 -106 -203 1 -45
-1 -84 -3 -87 -3 -2 -46 -6 -95 -7 -107 -3 -152 -21 -186 -75 -42 -68 -19
-164 50 -206 30 -19 51 -23 129 -24 51 -1 95 -4 97 -6 2 -2 6 -47 8 -99 3 -71
9 -104 23 -128 59 -101 211 -96 264 10 16 30 20 58 20 129 l0 90 48 1 c111 1
151 6 183 25 93 54 96 192 7 256 -32 22 -62 26 -210 28 l-28 0 0 89 c0 118
-21 167 -85 198 -25 13 -67 22 -80 18z"/>
<path d="M3162 3984 c-44 -23 -55 -40 -161 -251 l-91 -182 -196 -98 c-162 -81
-201 -104 -220 -133 -41 -62 -35 -141 16 -195 10 -11 105 -63 210 -115 l191
-95 96 -190 c52 -104 103 -198 112 -209 54 -61 167 -61 223 0 9 11 59 105 112
209 l95 190 194 97 c209 104 242 130 251 199 4 39 -14 101 -38 128 -9 10 -104
62 -211 115 l-195 97 -97 196 c-70 139 -107 202 -129 219 -42 33 -117 41 -162
18z m158 -649 c8 -9 49 -34 92 -56 43 -22 78 -43 78 -47 0 -4 -37 -25 -82 -47
l-82 -40 -47 -88 c-52 -99 -49 -99 -98 2 -36 75 -59 97 -151 141 l-69 33 77
40 c93 47 103 56 140 127 60 115 49 112 91 26 21 -41 44 -82 51 -91z"/>
</g>
</svg>
